<mxfile host="app.diagrams.net" modified="2020-10-02T00:01:23.343Z" agent="5.0 (Windows NT 10.0; Win64; x64) AppleWebKit/537.36 (KHTML, like Gecko) Chrome/85.0.4183.121 Safari/537.36" etag="cHDLxC5Db7CM2j4IcDTJ" version="13.7.7" type="github">
  <diagram name="Page-1" id="e7e014a7-5840-1c2e-5031-d8a46d1fe8dd">
    <mxGraphModel dx="446" dy="635" grid="1" gridSize="10" guides="1" tooltips="1" connect="1" arrows="1" fold="1" page="1" pageScale="1" pageWidth="1169" pageHeight="826" background="#ffffff" math="0" shadow="0">
      <root>
        <mxCell id="0" />
        <mxCell id="1" parent="0" />
        <mxCell id="2b3GiKQloK_GsVQh470r-1" value="Movie" style="swimlane;fontStyle=1;align=center;verticalAlign=top;childLayout=stackLayout;horizontal=1;startSize=26;horizontalStack=0;resizeParent=1;resizeParentMax=0;resizeLast=0;collapsible=1;marginBottom=0;" parent="1" vertex="1">
          <mxGeometry x="30" y="40" width="160" height="340" as="geometry" />
        </mxCell>
        <mxCell id="2b3GiKQloK_GsVQh470r-2" value="- actors: string&#xa;- awards: string&#xa;- country: string&#xa;- director: string&#xa;- genre: string&#xa;- imdbRating: string&#xa;- language: string&#xa;- metascore: string&#xa;- plot: string&#xa;- poster: string&#xa;- rated: string&#xa;- released: string&#xa;- runtime: string&#xa;- title: string&#xa;- type: string&#xa;- writer: string&#xa;- year: string" style="text;strokeColor=none;fillColor=none;align=left;verticalAlign=top;spacingLeft=4;spacingRight=4;overflow=hidden;rotatable=0;points=[[0,0.5],[1,0.5]];portConstraint=eastwest;" parent="2b3GiKQloK_GsVQh470r-1" vertex="1">
          <mxGeometry y="26" width="160" height="254" as="geometry" />
        </mxCell>
        <mxCell id="2b3GiKQloK_GsVQh470r-3" value="" style="line;strokeWidth=1;fillColor=none;align=left;verticalAlign=middle;spacingTop=-1;spacingLeft=3;spacingRight=3;rotatable=0;labelPosition=right;points=[];portConstraint=eastwest;" parent="2b3GiKQloK_GsVQh470r-1" vertex="1">
          <mxGeometry y="280" width="160" height="8" as="geometry" />
        </mxCell>
        <mxCell id="2b3GiKQloK_GsVQh470r-4" value="+ Movie(movie json??): void&#xa;+ display(): void" style="text;strokeColor=none;fillColor=none;align=left;verticalAlign=top;spacingLeft=4;spacingRight=4;overflow=hidden;rotatable=0;points=[[0,0.5],[1,0.5]];portConstraint=eastwest;" parent="2b3GiKQloK_GsVQh470r-1" vertex="1">
          <mxGeometry y="288" width="160" height="52" as="geometry" />
        </mxCell>
      </root>
    </mxGraphModel>
  </diagram>
</mxfile>
